<?xml version="1.0" standalone="no"?>
<!DOCTYPE svg PUBLIC "-//W3C//DTD SVG 20010904//EN"
 "http://www.w3.org/TR/2001/REC-SVG-20010904/DTD/svg10.dtd">
<svg version="1.0" xmlns="http://www.w3.org/2000/svg"
 width="1024.000000pt" height="1024.000000pt" viewBox="0 0 1024.000000 1024.000000"
 preserveAspectRatio="xMidYMid meet">

<g transform="translate(0.000000,1024.000000) scale(0.100000,-0.100000)"
fill="#000000" stroke="none">
<path d="M5465 7189 c-345 -28 -723 -126 -1140 -294 -222 -90 -349 -148 -312
-142 20 3 25 1 18 -6 -15 -15 -14 -32 2 -19 7 5 21 6 32 1 16 -6 17 -8 3 -8
-15 -1 -17 -12 -17 -81 0 -76 4 -85 31 -81 4 0 5 -6 2 -14 -4 -9 -1 -29 6 -46
11 -26 11 -32 -1 -40 -8 -5 -21 -6 -29 -3 -8 3 -11 2 -7 -2 4 -5 -3 -14 -15
-22 -18 -10 -19 -12 -3 -7 11 4 72 25 135 47 369 126 692 180 1080 180 745 0
1392 -211 2080 -680 369 -252 676 -498 1047 -839 62 -57 116 -103 119 -103 4
0 54 23 111 51 117 57 199 129 296 259 64 86 127 188 127 206 0 7 -30 35 -67
62 -80 58 -148 119 -378 338 -93 89 -208 195 -255 236 -252 222 -581 459 -825
592 -402 219 -885 365 -1364 410 -175 17 -503 19 -676 5z m-1388 -436 c0 -18
-23 -17 -30 1 -4 10 0 14 12 13 10 0 18 -7 18 -14z m33 -243 c0 -5 -2 -10 -4
-10 -3 0 -8 5 -11 10 -3 6 -1 10 4 10 6 0 11 -4 11 -10z"/>
<path d="M4895 6074 c-363 -36 -534 -63 -793 -123 -706 -166 -1431 -483 -2377
-1039 -154 -91 -297 -176 -318 -191 -29 -21 -49 -51 -96 -146 -32 -66 -58
-121 -57 -122 1 -1 60 18 131 42 499 170 916 187 1308 55 140 -48 346 -153
617 -315 491 -294 661 -380 920 -466 167 -55 392 -103 564 -120 169 -17 533
-6 703 20 625 96 1277 405 2013 956 239 178 518 394 525 405 5 8 -67 54 -435
277 -245 148 -694 376 -912 461 -581 228 -926 300 -1468 307 -157 1 -303 1
-325 -1z m-92 -496 c-29 -30 -113 -164 -113 -179 0 -20 38 -15 86 12 49 28 61
31 122 27 122 -7 203 -85 210 -202 5 -77 -17 -126 -82 -183 -78 -69 -174 -80
-271 -32 -26 13 -58 37 -72 53 l-24 29 7 -29 c4 -16 18 -57 31 -91 51 -127
230 -246 404 -267 70 -9 183 14 258 51 78 39 171 134 209 213 100 205 72 403
-81 567 l-62 66 45 -8 c236 -38 551 -109 601 -136 16 -8 19 -22 19 -94 l0 -84
43 -6 c69 -11 71 -14 69 -102 -8 -295 -144 -575 -375 -774 -284 -246 -679
-324 -1026 -205 -350 121 -623 436 -711 820 -23 102 -34 197 -21 176 8 -12 16
-9 48 16 l38 31 3 99 c2 59 8 104 15 111 18 17 233 77 387 107 292 56 283 56
243 14z"/>
<path d="M3270 3856 c0 -2 7 -7 16 -10 8 -3 12 -2 9 4 -6 10 -25 14 -25 6z"/>
</g>
</svg>
